<svg width="352" height="352" viewBox="0 0 352 352" fill="none" xmlns="http://www.w3.org/2000/svg">
<path d="M163.5 201.158C174.287 200.585 186.874 201.05 197.771 201.053L262.155 201.07L316.943 201.05C326.602 201.047 336.265 200.931 345.916 201.219C348.494 201.295 350.344 203.17 351.464 206.938C352.103 209.095 352.173 211.569 351.66 213.81C350.845 217.381 349.466 218.769 347.444 220.329C335.888 221.42 317.464 220.529 305.52 220.526L223.781 220.5L182.183 220.494C176.968 220.493 168.324 221.268 163.402 219.992C157.348 218.422 157.689 206.132 163.5 201.158Z" fill="#888888"/>
<path d="M163.069 73.3429C170.928 72.5285 180.887 73.0153 188.918 73.0273L233.471 73.0569L288.386 73.0544C298.771 73.0323 310.56 72.5788 320.854 73.2119C326.489 78.8762 326.344 87.0437 320.639 92.5254C317.973 93.0986 308.042 92.7893 304.792 92.7843L272.602 92.732L163.19 92.7219C157.712 87.2755 157.536 78.9443 163.069 73.3429Z" fill="#888888"/>
<path d="M164.969 265.143C171.873 264.577 180.844 265.073 187.94 265.08L231.488 265.074L284.25 265.105C294.186 265.067 304.174 264.91 314.106 265.029C315.913 265.118 317.299 265.237 318.937 266.64C322.114 269.358 322.947 276.41 320.834 280.958C319.608 283.587 317.79 284.311 315.771 284.72L220.224 284.82C202.613 284.82 185.073 284.896 167.388 284.864C162.004 284.852 156.784 280.681 159.973 269.861C160.79 267.087 163.107 265.728 164.969 265.143Z" fill="#888888"/>
<path d="M163.442 137.31C174.17 136.817 186.234 137.219 197.033 137.215L261.488 137.201H292.499C296.834 137.201 308.491 135.082 310.969 141.604C313.303 147.739 311.443 153.143 307.711 156.448C298.482 157.292 284.974 156.615 275.365 156.619L212.919 156.636L179.562 156.631C176.676 156.63 173.884 156.631 170.681 156.614C165.258 156.585 157.298 157.666 159.322 144.401C159.906 140.589 161.284 139.113 163.442 137.31Z" fill="#888888"/>
<path d="M52.474 146.057C56.8264 145.777 58.1517 146.458 61.5554 149.599C63.5409 151.426 65.3797 153.529 67.1696 155.577C73.9917 163.387 81.8799 170.237 88.5895 178.125C89.4747 179.164 89.9002 180.42 89.9833 181.77C90.1398 184.209 89.1813 185.49 87.6506 187.186C81.8164 192.719 64.3039 213.112 58.8853 216.731C57.6774 217.523 56.2836 217.961 54.8556 217.998C50.4298 218.109 45.9962 213.771 46.4124 209.393C46.9601 203.635 56.1125 196.056 59.9563 192.16L60.6165 191.264C57.9463 188.213 5.97075 193.412 2.7113 188.237C-8.6036 170.271 18.5806 173.388 27.6645 173.426L61.2278 173.421C53.9949 164.995 38.0111 155.27 52.474 146.057Z" fill="#888888"/>
<path d="M117.757 0.21737C118.603 0.148968 119.449 0.0920592 120.3 0.0466241C122.415 -0.0602233 125.952 -0.1411 127.403 1.69628C135.923 12.4504 121.038 12.1209 117.653 15.3612C113.339 19.4958 116.527 34.6467 115.459 40.6741C114.21 47.7475 113.334 49.0357 108.125 53.4329C121.421 63.7377 112.144 77.5734 116.984 91.0632C118.362 94.9002 128.067 93.3669 129.095 97.7481C130.202 102.48 128.894 105.446 124.329 106.987C94.1934 107.632 105.045 83.3557 101.179 63.9708C100.269 59.4123 85.4815 59.7364 91.3895 49.2863C92.6291 47.0894 99.7424 45.9236 100.692 43.2804C106.428 27.3117 93.5589 5.17579 117.757 0.21737Z" fill="#888888"/>
<path d="M97.9528 254.055C125.649 252.694 114.953 276.731 119.501 292.944C120.55 296.684 128.563 295.801 129.611 300.19C132.23 311.156 120.845 306.104 118.822 313.635C115.337 328.007 124.674 346.11 105.129 351.571C99.3162 352.319 92.3712 353.142 93.0455 344.165C93.3606 339.951 100.63 340.046 103.328 337.847C106.389 335.348 105.695 331.214 105.813 327.638C105.971 317.375 103.165 309.56 112.65 302.549C99.7936 292.365 109.372 281.075 104.425 268.468C103.465 266.019 97.0619 266.772 93.8331 263.201C92.199 259.097 94.1136 255.721 97.9528 254.055Z" fill="#888888"/>
</svg>
